<?xml version="1.0" standalone="no"?>
<!DOCTYPE svg PUBLIC "-//W3C//DTD SVG 20010904//EN"
 "http://www.w3.org/TR/2001/REC-SVG-20010904/DTD/svg10.dtd">
<svg version="1.0" xmlns="http://www.w3.org/2000/svg"
 width="200.000000pt" height="53.000000pt" viewBox="0 0 200.000000 53.000000"
 preserveAspectRatio="xMidYMid meet">

<g transform="translate(0.000000,53.000000) scale(0.100000,-0.100000)"
fill="#000000" stroke="none">
<path d="M52 268 c-23 -112 -42 -211 -42 -220 0 -15 10 -18 64 -18 67 0 76 6
76 51 0 14 -7 19 -25 19 -21 0 -25 4 -20 22 3 13 16 78 30 146 14 68 27 127
30 132 3 4 14 6 24 3 21 -5 25 0 35 40 l6 27 -68 0 -69 0 -41 -202z"/>
<path d="M746 162 c-3 -6 -1 -14 5 -17 15 -10 25 3 12 16 -7 7 -13 7 -17 1z"/>
<path d="M955 159 c-4 -6 -5 -13 -2 -16 7 -7 27 6 27 18 0 12 -17 12 -25 -2z"/>
<path d="M845 121 c-7 -12 12 -24 25 -16 11 7 4 25 -10 25 -5 0 -11 -4 -15 -9z"/>
</g>
</svg>
